<?xml version="1.0" encoding="iso-8859-1"?>
<!-- Generator: Adobe Illustrator 19.0.0, SVG Export Plug-In . SVG Version: 6.00 Build 0)  -->
<svg version="1.1" id="Layer_1" xmlns="http://www.w3.org/2000/svg" xmlns:xlink="http://www.w3.org/1999/xlink" x="0px" y="0px"
	 viewBox="0 0 392.543 392.543" style="enable-background:new 0 0 392.543 392.543;" xml:space="preserve">
<path style="fill:#194F82;" d="M38.141,171.318h11.313l12.347,56.76c1.099,5.042,5.56,8.598,10.667,8.598H181.98
	c5.107,0,9.568-3.556,10.667-8.598l12.347-56.824h11.313c6.012,0,10.925-4.848,10.925-10.925c0-6.012-4.848-10.925-10.925-10.925
	h-29.091v-24.824c0-18.036-14.675-32.711-32.711-32.711H99.943c-18.036,0-32.711,14.675-32.711,32.711v24.824H38.141
	c-6.012,0-10.925,4.848-10.925,10.925C27.281,166.469,32.194,171.318,38.141,171.318z M89.083,124.708
	c0-6.012,4.848-10.925,10.925-10.925h54.562c6.012,0,10.925,4.848,10.925,10.925v24.824H89.083V124.708z M182.691,171.318
	l-9.503,43.572H81.196l-9.503-43.572H182.691L182.691,171.318z"/>
<path style="fill:#56ACE0;" d="M165.43,124.708c0-6.012-4.848-10.925-10.925-10.925H99.943c-6.012,0-10.925,4.848-10.925,10.925
	v24.824h76.347v-24.824H165.43z"/>
<polygon style="fill:#FFC10D;" points="71.758,171.318 81.261,214.954 173.253,214.954 182.691,171.318 "/>
<path style="fill:#FFFFFF;" d="M127.289,32.78c-7.499,0-13.705,6.077-13.705,13.576s6.077,13.576,13.576,13.576
	c7.499,0,13.576-6.077,13.576-13.576S134.788,32.78,127.289,32.78z"/>
<path style="fill:#194F82;" d="M127.289,10.865c-19.523,0-35.491,15.903-35.491,35.491s15.903,35.491,35.491,35.491
	s35.491-15.903,35.491-35.491S146.812,10.865,127.289,10.865z M127.289,59.932c-7.499,0-13.705-6.077-13.705-13.576
	s6.077-13.576,13.576-13.576c7.499,0,13.576,6.077,13.576,13.576S134.788,59.932,127.289,59.932z"/>
<path style="fill:#FFFFFF;" d="M58.182,294.081c6.012,0,10.925-4.848,10.925-10.925c0-6.012-4.848-10.925-10.925-10.925
	c-6.077,0-10.925,4.849-10.925,10.925C47.257,289.168,52.17,294.081,58.182,294.081z"/>
<path style="fill:#FFC10D;" d="M58.246,345.152c-16.291,0-30.125,10.731-34.78,25.471h69.495
	C88.307,355.948,74.473,345.152,58.246,345.152z"/>
<path style="fill:#FFFFFF;" d="M196.267,294.081c6.012,0,10.925-4.848,10.925-10.925c0-6.012-4.848-10.925-10.925-10.925
	s-10.925,4.849-10.925,10.925C185.341,289.168,190.255,294.081,196.267,294.081z"/>
<path style="fill:#56ACE0;" d="M196.267,345.152c-16.291,0-30.125,10.731-34.78,25.471h69.56
	C226.392,355.948,212.558,345.152,196.267,345.152z"/>
<path style="fill:#FFFFFF;" d="M334.287,294.081c6.012,0,10.925-4.848,10.925-10.925c0-6.012-4.848-10.925-10.925-10.925
	c-6.012,0-10.925,4.849-10.925,10.925C323.362,289.168,328.275,294.081,334.287,294.081z"/>
<path style="fill:#FFC10D;" d="M334.287,345.152c-16.291,0-30.125,10.731-34.78,25.471h69.495
	C364.347,355.948,350.513,345.152,334.287,345.152z"/>
<g>
	<path style="fill:#194F82;" d="M196.267,323.366c-32.129,0-58.246,26.117-58.246,58.182c0,6.012,4.848,10.925,10.925,10.925h94.642
		h0.065c8.598-0.711,11.442-6.853,10.731-12.606C253.608,348.578,227.814,323.366,196.267,323.366z M161.487,370.752
		c4.655-14.739,18.489-25.471,34.78-25.471s30.125,10.731,34.78,25.471H161.487z"/>
	<path style="fill:#194F82;" d="M58.246,323.366C26.117,323.366,0,349.483,0,381.613c0,6.012,4.848,10.925,10.925,10.925h94.642
		h0.065c8.598-0.711,11.442-6.853,10.731-12.606C115.523,348.578,89.794,323.366,58.246,323.366z M23.467,370.752
		c4.655-14.739,18.489-25.471,34.78-25.471s30.125,10.731,34.78,25.471H23.467z"/>
	<path style="fill:#194F82;" d="M58.182,315.867c18.036,0,32.711-14.675,32.711-32.711s-14.675-32.711-32.711-32.711
		s-32.711,14.61-32.711,32.582C25.471,301.193,40.145,315.867,58.182,315.867z M58.182,272.231c6.012,0,10.925,4.848,10.925,10.925
		s-4.848,10.925-10.925,10.925c-6.077,0-10.925-4.848-10.925-10.925C47.257,277.144,52.17,272.231,58.182,272.231z"/>
	<path style="fill:#194F82;" d="M196.267,315.867c18.036,0,32.711-14.675,32.711-32.711s-14.675-32.711-32.711-32.711
		s-32.711,14.675-32.711,32.711S178.166,315.867,196.267,315.867z M196.267,272.231c6.012,0,10.925,4.848,10.925,10.925
		s-4.848,10.925-10.925,10.925s-10.925-4.848-10.925-10.925C185.341,277.144,190.255,272.231,196.267,272.231z"/>
	<path style="fill:#194F82;" d="M334.287,315.867c18.036,0,32.711-14.675,32.711-32.711s-14.675-32.711-32.711-32.711
		s-32.711,14.675-32.711,32.711C301.511,301.193,316.186,315.867,334.287,315.867z M334.287,272.231
		c6.012,0,10.925,4.848,10.925,10.925s-4.848,10.925-10.925,10.925c-6.012,0-10.925-4.848-10.925-10.925
		C323.362,277.144,328.275,272.231,334.287,272.231z"/>
	<path style="fill:#194F82;" d="M392.469,379.867c-0.905-31.289-26.634-56.501-58.182-56.501c-32.129,0-58.246,26.117-58.246,58.182
		c0,6.012,4.848,10.925,10.925,10.925h94.642h0.065C390.271,391.762,393.051,385.685,392.469,379.867z M299.507,370.752
		c4.655-14.739,18.489-25.471,34.78-25.471c16.291,0,30.125,10.731,34.78,25.471H299.507z"/>
	<path style="fill:#194F82;" d="M317.802,111.843c41.891,0,74.731-24.566,74.731-55.855s-32.84-55.984-74.731-55.984
		s-74.731,24.566-74.731,55.855c0,9.956,3.426,19.523,9.891,27.992c-5.042,14.61-8.275,23.208-8.275,23.273
		c-3.232,8.275,5.56,16.549,12.541,14.481l49.325-10.537C310.303,111.584,314.117,111.843,317.802,111.843z M271.774,96.263
		c1.164-3.297,2.457-7.111,3.879-11.313c1.293-3.943,0.388-8.21-2.521-11.119c-3.814-3.814-8.21-10.02-8.21-17.907
		c0-18.489,24.178-34.069,52.881-34.069c28.703,0,52.881,15.58,52.881,34.069s-24.178,34.069-52.881,34.069
		c-3.297,0-6.788-0.259-10.343-0.711C306.23,89.088,271.774,96.263,271.774,96.263z"/>
</g>
<path style="fill:#FFC10D;" d="M271.774,96.263c0,0,34.457-7.111,35.685-6.982c3.556,0.453,7.046,0.711,10.343,0.711
	c28.638,0,52.881-15.58,52.881-34.069s-24.178-34.069-52.881-34.069c-28.703,0-52.881,15.58-52.881,34.069
	c0,7.887,4.461,14.158,8.21,17.907c2.844,2.909,3.879,7.24,2.521,11.119C274.23,89.152,272.937,92.902,271.774,96.263z"/>
<g>
</g>
<g>
</g>
<g>
</g>
<g>
</g>
<g>
</g>
<g>
</g>
<g>
</g>
<g>
</g>
<g>
</g>
<g>
</g>
<g>
</g>
<g>
</g>
<g>
</g>
<g>
</g>
<g>
</g>
</svg>
