<?xml version="1.0" encoding="iso-8859-1"?>
<!-- Generator: Adobe Illustrator 19.0.0, SVG Export Plug-In . SVG Version: 6.00 Build 0)  -->
<svg version="1.1" id="Layer_1" xmlns="http://www.w3.org/2000/svg" xmlns:xlink="http://www.w3.org/1999/xlink" x="0px" y="0px"
	 viewBox="0 0 512 512" style="enable-background:new 0 0 512 512;" xml:space="preserve">
<path style="fill:#CFCDD6;" d="M427.25,302.385c-9.886,0-17.901-8.015-17.901-17.901V109.872c0-9.886,8.015-17.901,17.901-17.901
	s17.901,8.015,17.901,17.901v174.612C445.151,294.37,437.136,302.385,427.25,302.385z"/>
<path style="fill:#DEE1E7;" d="M427.25,302.385c-9.886,0-17.901-8.015-17.901-17.901V109.872c0-9.886,8.015-17.901,17.901-17.901
	V302.385z"/>
<path style="fill:#CFCDD6;" d="M84.75,302.385c-9.886,0-17.901-8.015-17.901-17.901V109.872c0-9.886,8.015-17.901,17.901-17.901
	s17.901,8.015,17.901,17.901v174.612C102.651,294.37,94.636,302.385,84.75,302.385z"/>
<path style="fill:#DEE1E7;" d="M84.75,302.385c-9.886,0-17.901-8.015-17.901-17.901V109.872c0-9.886,8.015-17.901,17.901-17.901
	V302.385z"/>
<path style="fill:#144F66;" d="M84.75,512c-9.886,0-17.901-8.015-17.901-17.901v-43.33c0-9.886,8.015-17.901,17.901-17.901
	s17.901,8.015,17.901,17.901v43.33C102.651,503.985,94.636,512,84.75,512z"/>
<path style="fill:#0E4151;" d="M427.25,512c-9.886,0-17.901-8.015-17.901-17.901v-43.33c0-9.886,8.015-17.901,17.901-17.901
	s17.901,8.015,17.901,17.901v43.33C445.151,503.985,437.136,512,427.25,512z"/>
<path style="fill:#BC2A46;" d="M468.522,251.613H43.478c-9.886,0-17.901,8.015-17.901,17.901v203.721
	c0,9.886,8.015,17.901,17.901,17.901h425.044c9.886,0,17.901-8.015,17.901-17.901V269.514
	C486.423,259.628,478.408,251.613,468.522,251.613z"/>
<path style="fill:#D62D46;" d="M251.829,251.613H43.478c-9.886,0-17.901,8.015-17.901,17.901v203.721
	c0,9.886,8.015,17.901,17.901,17.901h208.351L251.829,251.613L251.829,251.613z"/>
<path style="fill:#F79D1E;" d="M468.522,0H35.136c-4.943,0-8.95,4.007-8.95,8.95v80.588c0,0.686,0.079,1.355,0.227,1.997
	c2.935,26.584,25.07,46.48,51.978,46.48c18.055,0,33.962-8.958,43.36-22.882c9.398,13.925,25.305,22.882,43.36,22.882
	s33.962-8.958,43.36-22.882c9.398,13.925,25.305,22.882,43.36,22.882c18.055,0,33.962-8.958,43.36-22.882
	c9.398,13.925,25.305,22.882,43.36,22.882s33.962-8.958,43.36-22.883c9.398,13.925,25.305,22.883,43.36,22.883
	c26.901,0,49.032-19.884,51.975-46.456c0.15-0.65,0.23-1.328,0.23-2.025V8.95C477.473,4.007,473.465,0,468.522,0z"/>
<path style="fill:#FBB03B;" d="M251.829,0H35.136c-4.943,0-8.95,4.007-8.95,8.95v80.588c0,0.686,0.079,1.355,0.227,1.997
	c2.935,26.584,25.07,46.48,51.978,46.48c18.055,0,33.962-8.958,43.36-22.882c9.398,13.925,25.305,22.882,43.36,22.882
	s33.962-8.958,43.36-22.882c9.398,13.925,25.305,22.882,43.36,22.882L251.829,0L251.829,0z"/>
<path style="fill:#0E4151;" d="M484.924,281.447H27.076c-9.886,0-17.901-8.015-17.901-17.901s8.015-17.901,17.901-17.901h457.848
	c9.886,0,17.901,8.015,17.901,17.901S494.81,281.447,484.924,281.447z"/>
<path style="fill:#144F66;" d="M251.829,281.447H27.076c-9.886,0-17.901-8.015-17.901-17.901s8.015-17.901,17.901-17.901h224.753
	V281.447z"/>
<path style="fill:#885F3E;" d="M373.952,388.749h-8.057c-9.886,0-17.901-8.015-17.901-17.901c0-9.886,8.015-17.901,17.901-17.901
	h8.057c9.886,0,17.901,8.015,17.901,17.901C391.853,380.734,383.839,388.749,373.952,388.749z"/>
<g>
	<path style="fill:#A67C52;" d="M146.105,388.749h-8.057c-9.886,0-17.901-8.015-17.901-17.901c0-9.886,8.015-17.901,17.901-17.901
		h8.057c9.886,0,17.901,8.015,17.901,17.901C164.006,380.734,155.991,388.749,146.105,388.749z"/>
</g>
<path style="fill:#BC2A46;" d="M477.473,8.95c0-4.943-4.007-8.95-8.95-8.95H35.136c-4.943,0-8.95,4.007-8.95,8.95v60.472h451.286
	V8.95H477.473z"/>
<path style="fill:#D62D46;" d="M251.829,0H35.136c-4.943,0-8.95,4.007-8.95,8.95v60.472h225.644V0z"/>
<path style="fill:#DBAD75;" d="M328.434,327.194H183.566c-24.07,0-43.652,19.582-43.652,43.652s19.582,43.652,43.652,43.652h144.869
	c24.07,0,43.652-19.582,43.652-43.652S352.504,327.194,328.434,327.194z"/>
<path style="fill:#EABD81;" d="M251.829,327.194h-68.263c-24.07,0-43.652,19.582-43.652,43.652s19.582,43.652,43.652,43.652h68.263
	V327.194z"/>
<g>
</g>
<g>
</g>
<g>
</g>
<g>
</g>
<g>
</g>
<g>
</g>
<g>
</g>
<g>
</g>
<g>
</g>
<g>
</g>
<g>
</g>
<g>
</g>
<g>
</g>
<g>
</g>
<g>
</g>
</svg>
