<?xml version="1.0" encoding="iso-8859-1"?>
<!-- Generator: Adobe Illustrator 19.0.0, SVG Export Plug-In . SVG Version: 6.00 Build 0)  -->
<svg version="1.1" id="Layer_1" xmlns="http://www.w3.org/2000/svg" xmlns:xlink="http://www.w3.org/1999/xlink" x="0px" y="0px"
	 viewBox="0 0 298.932 298.932" style="enable-background:new 0 0 298.932 298.932;" xml:space="preserve">
<g>
	<g>
		<g id="XMLID_38_">
			<g>
				<polygon style="fill:#F47C6D;" points="214.136,174.016 214.136,282.351 196.979,282.351 196.979,165.87 				"/>
				<polygon style="fill:#F47C6D;" points="104.038,168.115 104.038,282.351 86.88,282.351 86.88,176.678 				"/>
				<path style="fill:#F2CE75;" d="M70.266,185.113v97.239H45.701v-61.48C45.701,206.664,54.873,193.451,70.266,185.113z"/>
				<path style="fill:#F2CE75;" d="M253.23,216.895v65.456h-22.482V182.258C244.731,190.597,253.23,203.489,253.23,216.895z"/>
				<path style="fill:#F2CE75;" d="M180.365,163.85v118.502H120.65V163.305c7.216,2.694,14.977,4.265,23.123,4.265h14.977
					C166.318,167.57,173.598,166.223,180.365,163.85z"/>
				<path style="fill:#FEDE94;" d="M207.818,80.915v21.167c0,26.972-22.001,48.908-49.068,48.908h-14.977
					c-27.068,0-49.1-21.936-49.1-48.908V80.915C94.673,80.915,207.818,80.915,207.818,80.915z"/>
				<polygon style="fill:#D6AA83;" points="193.803,16.581 202.302,62.666 101.311,62.666 109.809,16.581 				"/>
				<path style="fill:#2D213F;" d="M269.876,216.895v73.731c0,4.586-3.72,8.306-8.306,8.306H37.395c-4.618,0-8.338-3.72-8.338-8.306
					v-69.754c0-21.199,13.341-40.505,35.631-51.634l35.887-17.928c-13.758-12.027-22.514-29.601-22.514-49.229V79.247H49.549
					c-4.586,0-8.306-3.72-8.306-8.306c0-4.554,3.72-8.274,8.306-8.274H84.41L94.704,6.799C95.411,2.854,98.842,0,102.883,0h97.848
					c4.041,0,7.473,2.854,8.178,6.799l10.295,55.867h37.619c4.586,0,8.306,3.72,8.306,8.274c0,4.586-3.72,8.306-8.306,8.306h-32.359
					v22.834c0,19.114-8.338,36.304-21.487,48.267l29.858,14.207C255.667,175.427,269.876,195.472,269.876,216.895z M253.23,282.351
					v-65.457c0-13.406-8.499-26.298-22.482-34.636v100.093C230.748,282.351,253.23,282.351,253.23,282.351z M214.136,282.351
					V174.016l-17.158-8.146v116.481C196.979,282.351,214.136,282.351,214.136,282.351z M207.818,102.081V80.915H94.673v21.167
					c0,26.972,22.033,48.908,49.1,48.908h14.977C185.817,150.989,207.818,129.053,207.818,102.081z M202.302,62.666l-8.499-46.086
					h-83.994l-8.499,46.086H202.302z M180.365,282.351V163.85c-6.767,2.373-14.047,3.72-21.616,3.72h-14.977
					c-8.146,0-15.907-1.571-23.123-4.265v119.047C120.65,282.351,180.365,282.351,180.365,282.351z M104.038,282.351V168.115
					l-17.158,8.563v105.673C86.88,282.351,104.038,282.351,104.038,282.351z M70.266,282.351v-97.239
					C54.872,193.45,45.7,206.664,45.7,220.871v61.48H70.266z"/>
			</g>
		</g>
		<path style="fill:#CC9F7E;" d="M172.755,54.854l-60.54,7.812h90.087l-8.499-46.086h-10.324l1.915,22.607
			C186.051,46.952,180.481,53.856,172.755,54.854z"/>
		<path style="fill:#F2CE75;" d="M171.268,149.315c21.006-5.532,36.551-24.579,36.551-47.234V80.915h-82.942l50.024,5.664
			c14.948,1.693,24.794,16.654,20.112,30.952C191.247,129.03,184.246,141.451,171.268,149.315z"/>
		<path style="fill:#FEDE94;" d="M230.748,230.708c3.499-6.074,5.407-12.546,5.407-19.265s-1.905-13.188-5.407-19.265V230.708z"/>
		<path style="fill:#FEDE94;" d="M143.772,167.57c-8.146,0-15.907-1.571-23.123-4.265V274.7c0.446,0.003,0.885,0.019,1.331,0.019
			c21.34,0,41.301-3.252,58.385-8.9V163.85c-6.767,2.373-14.047,3.72-21.616,3.72H143.772z"/>
		<path style="fill:#FEDE94;" d="M45.701,220.872v37.641c7.379,3.675,15.638,6.815,24.566,9.336v-82.736
			C54.873,193.451,45.701,206.664,45.701,220.872z"/>
	</g>
</g>
<g>
</g>
<g>
</g>
<g>
</g>
<g>
</g>
<g>
</g>
<g>
</g>
<g>
</g>
<g>
</g>
<g>
</g>
<g>
</g>
<g>
</g>
<g>
</g>
<g>
</g>
<g>
</g>
<g>
</g>
</svg>
